<svg width="397" height="125" viewBox="0 0 397 125" fill="none" xmlns="http://www.w3.org/2000/svg">
<line y1="122.5" x2="176" y2="122.5" stroke="#FF5252" stroke-width="5"/>
<line x1="174.232" y1="123.232" x2="231.232" y2="66.2322" stroke="#FF5252" stroke-width="5"/>
<path d="M229 67L397 67" stroke="#FF5252" stroke-width="5"/>
<path d="M226.785 55.5L169.22 112H6.45121H0.496247H0V0H396.501V55.5H226.785Z" fill="#FF2727"/>
<line y1="114" x2="171.702" y2="114" stroke="#0D0D0D" stroke-width="8"/>
<line y1="-4" x2="81.8334" y2="-4" transform="matrix(0.71752 -0.696538 0.694731 0.719269 171.703 118)" stroke="#0D0D0D" stroke-width="8"/>
<path d="M225.432 59L397 59" stroke="#0D0D0D" stroke-width="8"/>
<ellipse cx="51.6097" cy="56" rx="39.6998" ry="40" fill="white"/>
<ellipse cx="51.6097" cy="56" rx="39.6998" ry="40" fill="white"/>
<ellipse cx="51.6097" cy="56" rx="34.7373" ry="35" fill="#67A4FF"/>
<ellipse cx="51.6097" cy="56" rx="31.7598" ry="32" fill="url(#paint0_linear_35_2)"/>
<path d="M75.4295 45.6042C75.4295 55.8791 64.9872 39.5604 52.1059 39.5604C39.2246 39.5604 28.7823 55.8791 28.7823 45.6042C28.7823 35.3294 39.2246 27 52.1059 27C64.9872 27 75.4295 35.3294 75.4295 45.6042Z" fill="white" fill-opacity="0.4"/>
<ellipse cx="106.197" cy="31" rx="14.8874" ry="15" fill="#D9D9D9"/>
<path d="M119.099 31C119.099 38.1797 113.323 44 106.197 44C99.071 44 93.2944 38.1797 93.2944 31C93.2944 23.8203 99.071 18 106.197 18C113.323 18 119.099 23.8203 119.099 31Z" fill="#FF2727"/>
<path d="M114.137 26.7652C114.137 30.5015 110.36 24.5674 105.701 24.5674C101.041 24.5674 97.2644 30.5015 97.2644 26.7652C97.2644 23.0289 101.041 20 105.701 20C110.36 20 114.137 23.0289 114.137 26.7652Z" fill="white" fill-opacity="0.4"/>
<ellipse cx="173.686" cy="31" rx="14.8874" ry="15" fill="#D9D9D9"/>
<path d="M186.589 31C186.589 38.1797 180.812 44 173.686 44C166.561 44 160.784 38.1797 160.784 31C160.784 23.8203 166.561 18 173.686 18C180.812 18 186.589 23.8203 186.589 31Z" fill="#07A203"/>
<path d="M181.626 26.7652C181.626 30.5015 177.849 24.5674 173.19 24.5674C168.531 24.5674 164.754 30.5015 164.754 26.7652C164.754 23.0289 168.531 20 173.19 20C177.849 20 181.626 23.0289 181.626 26.7652Z" fill="white" fill-opacity="0.4"/>
<ellipse cx="139.942" cy="31" rx="14.8874" ry="15" fill="#D9D9D9"/>
<path d="M152.844 31C152.844 38.1797 147.067 44 139.942 44C132.816 44 127.039 38.1797 127.039 31C127.039 23.8203 132.816 18 139.942 18C147.067 18 152.844 23.8203 152.844 31Z" fill="#FFDC27"/>
<path d="M147.882 26.7652C147.882 30.5015 144.105 24.5674 139.445 24.5674C134.786 24.5674 131.009 30.5015 131.009 26.7652C131.009 23.0289 134.786 20 139.445 20C144.105 20 147.882 23.0289 147.882 26.7652Z" fill="white" fill-opacity="0.4"/>
<defs>
<linearGradient id="paint0_linear_35_2" x1="51.6097" y1="24" x2="51.6097" y2="88" gradientUnits="userSpaceOnUse">
<stop stop-color="#43BBFF"/>
<stop offset="0.5" stop-color="#ADDAFF"/>
<stop offset="1" stop-color="#43BBFF"/>
</linearGradient>
</defs>
</svg>
